<?xml version="1.0" encoding="UTF-8" standalone="no"?>
<svg
   xmlns:dc="http://purl.org/dc/elements/1.1/"
   xmlns:cc="http://creativecommons.org/ns#"
   xmlns:rdf="http://www.w3.org/1999/02/22-rdf-syntax-ns#"
   xmlns:svg="http://www.w3.org/2000/svg"
   xmlns="http://www.w3.org/2000/svg"
   xmlns:sodipodi="http://sodipodi.sourceforge.net/DTD/sodipodi-0.dtd"
   xmlns:inkscape="http://www.inkscape.org/namespaces/inkscape"
   width="700pt"
   height="700pt"
   version="1.1"
   viewBox="0 0 700 700"
   id="svg8"
   sodipodi:docname="community.svg"
   inkscape:version="0.92.5 (2060ec1f9f, 2020-04-08)">
  <metadata
     id="metadata14">
    <rdf:RDF>
      <cc:Work
         rdf:about="">
        <dc:format>image/svg+xml</dc:format>
        <dc:type
           rdf:resource="http://purl.org/dc/dcmitype/StillImage" />
        <dc:title></dc:title>
      </cc:Work>
    </rdf:RDF>
  </metadata>
  <defs
     id="defs12" />
  <sodipodi:namedview
     pagecolor="#ffffff"
     bordercolor="#666666"
     borderopacity="1"
     objecttolerance="10"
     gridtolerance="10"
     guidetolerance="10"
     inkscape:pageopacity="0"
     inkscape:pageshadow="2"
     inkscape:window-width="1430"
     inkscape:window-height="1065"
     id="namedview10"
     showgrid="false"
     fit-margin-top="5"
     fit-margin-left="5"
     fit-margin-right="5"
     fit-margin-bottom="5"
     inkscape:zoom="0.417193"
     inkscape:cx="693.30878"
     inkscape:cy="307.26536"
     inkscape:window-x="0"
     inkscape:window-y="439"
     inkscape:window-maximized="0"
     inkscape:current-layer="g6" />
  <g
     id="g6"
     transform="translate(-90.275421,-358.8771)">
    <rect
       width="697.5"
       height="697.5"
       id="rect2"
       x="91.525429"
       y="360.12711"
       style="fill:#43ac4b;fill-opacity:1;stroke-width:0.58124995" />
    <path
       d="m 460.87,389.29204 c 6.6133,0 12.922,1.4609 18.617,4.0664 5.8945,2.707 11.098,6.6484 15.277,11.5 l 0.0117,-0.0117 c 3.4258,3.9805 6.1719,8.5898 8.0352,13.617 1.8008,4.8477 2.7852,10.09 2.7852,15.543 0,12.344 -5,23.527 -13.098,31.613 -8.0977,8.0977 -19.27,13.098 -31.613,13.098 -12.343,0 -23.527,-5 -31.613,-13.098 -8.0977,-8.0977 -13.098,-19.27 -13.098,-31.613 0,-4.3594 0.64062,-8.6016 1.8281,-12.645 1.2109,-4.1172 3.0234,-8.0117 5.3281,-11.586 4.0547,-6.2734 9.6367,-11.473 16.199,-15.051 6.375,-3.4766 13.652,-5.4414 21.363,-5.4414 z m 168.08,135.69 c -0.26562,-1.8008 0.96875,-3.4766 2.7695,-3.7539 1.8008,-0.26562 3.4766,0.96875 3.7539,2.7695 0.84375,5.5312 2.332,9.0703 4.7344,11.336 2.4062,2.293 5.9961,3.5391 10.957,4.4102 1.7891,0.31641 2.9961,2.0156 2.6836,3.8164 -0.31641,1.7891 -2.0156,2.9961 -3.8164,2.6836 -6.2227,-1.0977 -10.855,-2.8086 -14.359,-6.1328 -3.5156,-3.3359 -5.6289,-8.0625 -6.7148,-15.125 z m 78.43,180.74 c 1.0703,-1.4609 3.1367,-1.7891 4.5977,-0.70703 1.4609,1.0703 1.7891,3.1367 0.70703,4.5977 -3.3125,4.5078 -4.7617,8.0742 -4.6836,11.387 0.0898,3.3242 1.7383,6.75 4.6367,10.883 1.0312,1.4844 0.67969,3.5391 -0.80469,4.5703 -1.4844,1.0312 -3.5391,0.67969 -4.5703,-0.80469 -3.6133,-5.1758 -5.6914,-9.6602 -5.8203,-14.484 -0.125,-4.8477 1.7266,-9.6719 5.9453,-15.43 z m -72.336,183.25 c 1.8008,-0.26563 3.4766,0.96875 3.7539,2.7695 0.26562,1.8008 -0.96875,3.4766 -2.7695,3.7539 -5.5312,0.84375 -9.0703,2.332 -11.336,4.7344 -2.293,2.4062 -3.5391,5.9961 -4.4102,10.957 -0.31641,1.7891 -2.0156,2.9961 -3.8164,2.6836 -1.7891,-0.31641 -2.9961,-2.0156 -2.6836,-3.8164 1.0977,-6.2227 2.8086,-10.855 6.1328,-14.359 3.3359,-3.5156 8.0742,-5.6289 15.125,-6.7148 z m -180.74,78.43 c 1.4609,1.0703 1.7891,3.1367 0.70703,4.5977 -1.0703,1.4609 -3.1367,1.7891 -4.5977,0.70703 -4.5078,-3.3125 -8.0742,-4.7617 -11.387,-4.6836 -3.3242,0.0898 -6.75,1.7383 -10.883,4.6367 -1.4844,1.0312 -3.5391,0.67969 -4.5703,-0.80469 -1.0312,-1.48438 -0.67969,-3.5391 0.80469,-4.5703 5.1758,-3.6133 9.6602,-5.6914 14.484,-5.8203 4.8477,-0.125 9.6719,1.7266 15.43,5.9453 z m -183.25,-72.336 c 0.26562,1.8008 -0.96875,3.4766 -2.7695,3.7539 -1.8008,0.26562 -3.4766,-0.96875 -3.7539,-2.7695 -0.84375,-5.5312 -2.332,-9.0703 -4.7344,-11.336 -2.4062,-2.293 -5.9961,-3.5391 -10.957,-4.4102 -1.7891,-0.31641 -2.9961,-2.0156 -2.6836,-3.8164 0.31641,-1.7891 2.0156,-2.9961 3.8164,-2.6836 6.2227,1.0977 10.855,2.8086 14.359,6.1328 3.5156,3.3359 5.6289,8.0742 6.7148,15.125 z m -78.43,-180.74 c -1.0703,1.4609 -3.1367,1.7891 -4.5977,0.70703 -1.4609,-1.0703 -1.7891,-3.1367 -0.70703,-4.5977 3.3125,-4.5078 4.7617,-8.0742 4.6836,-11.387 -0.0898,-3.3242 -1.7383,-6.75 -4.6367,-10.883 -1.0312,-1.4844 -0.67969,-3.5391 0.80469,-4.5703 1.48438,-1.0312 3.5391,-0.67969 4.5703,0.80469 3.6133,5.1758 5.6914,9.6602 5.8203,14.484 0.125,4.8477 -1.7266,9.6719 -5.9453,15.43 z m 72.336,-183.25 c -1.8008,0.26562 -3.4766,-0.96875 -3.7539,-2.7695 -0.26562,-1.8008 0.96875,-3.4766 2.7695,-3.7539 5.5312,-0.84375 9.0703,-2.332 11.336,-4.7344 2.293,-2.4062 3.5391,-5.9961 4.4102,-10.957 0.31641,-1.7891 2.0156,-2.9961 3.8164,-2.6836 1.7891,0.31641 2.9961,2.0156 2.6836,3.8164 -1.0977,6.2227 -2.8086,10.855 -6.1328,14.359 -3.3359,3.5156 -8.0742,5.6289 -15.125,6.7148 z m 180.74,-78.43 c -1.4609,-1.0703 -1.7891,-3.1367 -0.70703,-4.5977 1.0703,-1.4609 3.1367,-1.7891 4.5977,-0.70703 4.5078,3.3125 8.0742,4.7617 11.387,4.6836 3.3242,-0.0898 6.75,-1.7383 10.883,-4.6367 1.4844,-1.0312 3.5391,-0.67969 4.5703,0.80469 1.0312,1.4844 0.67969,3.5391 -0.80469,4.5703 -5.1758,3.6133 -9.6602,5.6914 -14.484,5.8203 -4.8477,0.125 -9.6719,-1.7266 -15.43,-5.9453 z m 238.28,38.062 c 4.6992,4.6992 8.1367,10.191 10.305,16.047 2.2539,6.0703 3.1367,12.531 2.6562,18.93 -0.39062,5.2148 -1.7148,10.402 -3.9531,15.289 -2.168,4.7344 -5.1758,9.1328 -9.0195,12.973 -8.7266,8.7266 -20.176,13.098 -31.613,13.098 -11.449,0 -22.887,-4.3711 -31.613,-13.098 -8.7266,-8.7266 -13.098,-20.176 -13.098,-31.613 0,-11.449 4.3711,-22.887 13.098,-31.613 3.0742,-3.0742 6.5234,-5.6172 10.238,-7.6445 3.8164,-2.0781 7.8477,-3.5625 11.977,-4.4453 7.2812,-1.5625 14.887,-1.2852 22.078,0.83203 6.9531,2.0547 13.488,5.8047 18.957,11.262 z m 0.41406,19.711 c -1.6641,-4.4727 -4.2812,-8.6523 -7.8711,-12.254 -4.1953,-4.1953 -9.1836,-7.0664 -14.461,-8.6289 -5.4922,-1.625 -11.324,-1.8281 -16.93,-0.62891 -3.1758,0.67969 -6.2461,1.8008 -9.1328,3.375 -2.7695,1.5117 -5.3906,3.4648 -7.8086,5.8711 -6.6758,6.6758 -10,15.418 -10,24.156 0,8.7422 3.3359,17.48 10,24.156 6.6758,6.6758 15.418,10 24.156,10 8.7422,0 17.48,-3.3359 24.156,-10 2.9844,-2.9844 5.2891,-6.3359 6.9141,-9.8867 1.6992,-3.7031 2.6953,-7.6719 2.9961,-11.699 0.36719,-4.875 -0.31641,-9.8242 -2.0391,-14.473 z m -81.945,117.95 c -0.0391,0.1875 -0.0898,0.37891 -0.15234,0.56641 -0.15234,0.44141 -0.32812,0.80469 -0.57812,1.1953 -0.46484,0.71875 -1.1094,1.3359 -1.9141,1.7617 l -57.234,30.82 c -0.11328,0.0625 -0.21484,0.11328 -0.32812,0.16406 -3.5156,1.8906 -4.9766,3.7031 -5.0508,5.1016 -0.0117,0.23828 0.0391,0.45312 0.13672,0.62891 0.15234,0.25 0.37891,0.45312 0.67969,0.60547 1.3359,0.67969 3.5156,0.49219 6.0703,-1.2109 0.31641,-0.20313 0.62891,-0.37891 0.96875,-0.50391 l 43.316,-18.453 c 31.98,-13.629 41.676,-31.953 54.992,-62.031 -5.4648,-0.98438 -11.07,-2.6719 -16.523,-5.1406 -7.1914,-3.25 -14.133,-7.8359 -20.152,-13.867 -6.375,-6.375 -11.133,-13.766 -14.297,-21.664 -2.293,-5.7188 -3.7266,-11.699 -4.3086,-17.758 l -29.711,12.117 -0.86719,72.031 42.836,-7.9609 c 2.8594,-0.52734 5.5938,1.3711 6.1211,4.2188 0.13672,0.73047 0.11328,1.4492 -0.0508,2.1172 l -3.9531,17.254 z m -64.879,25.078 55.129,-29.688 1.6367,-7.1797 -41.25,7.6719 c -0.32813,0.0625 -0.66797,0.0898 -1.0078,0.0898 -2.8984,-0.0391 -5.2266,-2.418 -5.1875,-5.3164 l 0.98438,-81.543 c -0.13672,-2.2031 1.1211,-4.3438 3.2891,-5.2266 l 39.902,-16.273 v 0.0117 c 0.64062,-0.26562 1.3594,-0.40234 2.1016,-0.37891 2.8984,0.0625 5.2031,2.4805 5.125,5.3789 -0.17578,7.2656 1.1094,14.574 3.8555,21.438 2.6328,6.5742 6.625,12.758 11.992,18.125 5.1016,5.1016 10.957,8.9805 17.016,11.715 6.7383,3.0469 13.703,4.7109 20.191,5.125 0.59375,0.0391 1.1953,0.17578 1.7773,0.42969 2.6719,1.1602 3.8789,4.2578 2.7188,6.9258 l -0.0508,0.10156 c -15.934,36.336 -25.305,57.688 -63.305,73.883 l -43.023,18.324 c -5.9688,3.7656 -11.965,3.7031 -16.234,1.5117 -2.0898,-1.0703 -3.793,-2.6328 -4.9258,-4.5234 -1.1836,-1.9648 -1.7773,-4.2461 -1.625,-6.6875 0.28906,-4.6836 3.3867,-9.8633 10.645,-13.766 0.0898,-0.0508 0.17578,-0.10156 0.26562,-0.15234 z m 232.46,66.742 c 0,6.6133 -1.4609,12.922 -4.0664,18.617 -2.707,5.8945 -6.6484,11.098 -11.5,15.277 l 0.0117,0.0117 c -3.9805,3.4258 -8.5898,6.1719 -13.617,8.0352 -4.8477,1.8008 -10.09,2.7852 -15.543,2.7852 -12.344,0 -23.527,-5 -31.613,-13.098 -8.0977,-8.0977 -13.098,-19.27 -13.098,-31.613 0,-12.343 5,-23.527 13.098,-31.613 8.0977,-8.0977 19.27,-13.098 31.613,-13.098 4.3594,0 8.6016,0.64062 12.645,1.8281 4.1172,1.2109 8.0117,3.0234 11.586,5.3281 6.2734,4.0547 11.473,9.6367 15.051,16.199 3.4766,6.375 5.4414,13.652 5.4414,21.363 z m -13.641,14.246 c 1.9766,-4.3086 3.0859,-9.1328 3.0859,-14.246 0,-5.9453 -1.5,-11.5 -4.1172,-16.324 -2.7461,-5.0508 -6.7148,-9.3203 -11.5,-12.406 -2.6836,-1.7383 -5.668,-3.1094 -8.8672,-4.0547 -3.0352,-0.89453 -6.2852,-1.3711 -9.6719,-1.3711 -9.4336,0 -17.973,3.8281 -24.156,10 -6.1836,6.1836 -10,14.723 -10,24.156 0,9.4336 3.8281,17.973 10,24.156 6.1836,6.1836 14.723,10 24.156,10 4.1797,0 8.1875,-0.74219 11.879,-2.1172 3.8398,-1.4219 7.3555,-3.5156 10.391,-6.1328 l 0.0117,0.0117 0.0117,-0.0117 c 3.7148,-3.1992 6.7266,-7.168 8.793,-11.664 z m -141.17,25.316 c -1.2734,0.90625 -2.9336,1.2344 -4.5469,0.75391 l -62.27,-18.68 -0.16406,-0.0508 c -3.9414,-1.2227 -6.3242,-0.96875 -7.3789,-0.0391 -0.17578,0.15234 -0.28906,0.33984 -0.32812,0.52734 -0.0625,0.27734 -0.0508,0.59375 0.0625,0.93359 0.45312,1.4219 2.1289,2.832 5.1133,3.4375 0.32812,0.0625 0.62891,0.15234 0.91797,0.27734 v -0.0117 l 43.805,17.633 c 32.242,12.973 52.07,6.8789 82.75,-4.9883 -3.1758,-4.5586 -5.9336,-9.7227 -8.0352,-15.328 -2.7852,-7.3945 -4.4453,-15.531 -4.4453,-24.043 0,-9.0039 1.8516,-17.609 5.2031,-25.418 2.4297,-5.6797 5.6562,-10.934 9.5234,-15.629 l -29.562,-12.43 -51.551,50.332 35.895,24.637 c 2.4062,1.6367 3.0234,4.9141 1.3867,7.3164 -0.46484,0.69141 -1.0703,1.2227 -1.75,1.6133 l -14.598,9.1562 z m -63.809,-28.023 60.004,18 6.2227,-3.9062 -34.562,-23.73 c -0.28906,-0.1875 -0.55469,-0.41406 -0.80469,-0.67969 -2.0273,-2.0781 -1.9766,-5.4141 0.10156,-7.4453 l 58.645,-57.246 c 1.4727,-1.4219 3.7031,-1.9141 5.707,-1.0703 l 39.449,16.602 c 0.75391,0.26562 1.4492,0.70703 2.0391,1.3359 2.0039,2.1016 1.9141,5.4414 -0.1875,7.4453 -5.2656,5.0117 -9.5234,11.082 -12.43,17.859 -2.7969,6.5234 -4.3438,13.715 -4.3438,21.297 0,7.2305 1.3984,14.105 3.7539,20.328 2.5938,6.8906 6.3594,13 10.656,17.887 0.39062,0.45312 0.71875,0.96875 0.95703,1.5625 1.0586,2.707 -0.27734,5.7695 -2.9844,6.8281 l -0.10156,0.0391 c -36.953,14.422 -58.668,22.898 -96.996,7.4688 l -43.441,-17.48 c -6.8633,-1.5742 -11.047,-5.8555 -12.508,-10.402 -0.71875,-2.2148 -0.80469,-4.5078 -0.26563,-6.6641 0.55469,-2.2305 1.75,-4.2695 3.5898,-5.8828 3.5508,-3.1367 9.4844,-4.6094 17.457,-2.1523 l 0.0742,0.0234 z m 117.19,211.57 c -4.6992,4.6992 -10.191,8.1367 -16.047,10.305 -6.0703,2.2539 -12.531,3.1367 -18.93,2.6562 -5.2148,-0.39062 -10.402,-1.7148 -15.289,-3.9531 -4.7344,-2.168 -9.1328,-5.1758 -12.973,-9.0195 -8.7266,-8.7266 -13.098,-20.176 -13.098,-31.613 0,-11.449 4.3711,-22.887 13.098,-31.613 8.7266,-8.7266 20.176,-13.098 31.613,-13.098 11.449,0 22.887,4.3711 31.613,13.098 3.0742,3.0742 5.6172,6.5234 7.6445,10.238 2.0781,3.8164 3.5625,7.8477 4.4453,11.977 1.5625,7.2812 1.2852,14.887 -0.83203,22.078 -2.0547,6.9531 -5.8047,13.488 -11.262,18.957 z m -19.711,0.41406 c 4.4727,-1.6641 8.6523,-4.2812 12.254,-7.8711 4.1953,-4.1953 7.0664,-9.1836 8.6289,-14.461 1.625,-5.4922 1.8281,-11.324 0.62891,-16.93 -0.67969,-3.1758 -1.8008,-6.2461 -3.375,-9.1328 -1.5117,-2.7695 -3.4648,-5.3906 -5.8711,-7.8086 -6.6758,-6.6758 -15.418,-10 -24.156,-10 -8.7422,0 -17.48,3.3359 -24.156,10 -6.6758,6.6758 -10,15.418 -10,24.156 0,8.7422 3.3359,17.48 10,24.156 2.9844,2.9844 6.3359,5.2891 9.8867,6.9141 3.7031,1.6992 7.6719,2.6953 11.699,2.9961 4.875,0.36719 9.8242,-0.31641 14.473,-2.0391 z m -117.95,-81.945 c -0.1875,-0.0391 -0.37891,-0.0898 -0.56641,-0.15234 -0.44141,-0.15234 -0.80469,-0.32812 -1.1953,-0.57812 -0.71875,-0.46484 -1.3359,-1.1094 -1.7617,-1.9141 l -30.82,-57.234 c -0.0625,-0.11328 -0.11328,-0.21484 -0.16406,-0.32812 -1.8906,-3.5156 -3.7031,-4.9766 -5.1016,-5.0508 -0.23828,-0.0117 -0.45312,0.0391 -0.62891,0.13672 -0.25,0.15234 -0.45312,0.37891 -0.60547,0.67969 -0.67969,1.3359 -0.49219,3.5156 1.2109,6.0703 0.20312,0.31641 0.37891,0.62891 0.50391,0.96875 l 18.453,43.316 c 13.629,31.98 31.953,41.676 62.031,54.992 0.98438,-5.4648 2.6719,-11.07 5.1406,-16.523 3.25,-7.1914 7.8359,-14.133 13.867,-20.152 6.375,-6.375 13.766,-11.133 21.664,-14.297 5.7188,-2.293 11.699,-3.7266 17.758,-4.3086 l -12.117,-29.711 -72.031,-0.86719 7.9609,42.836 c 0.52734,2.8594 -1.3711,5.5938 -4.2188,6.1211 -0.73047,0.13672 -1.4492,0.11328 -2.1172,-0.0508 l -17.254,-3.9531 z m -25.078,-64.879 29.688,55.129 7.1797,1.6367 -7.6719,-41.25 c -0.0625,-0.32813 -0.0898,-0.66797 -0.0898,-1.0078 0.0391,-2.8984 2.418,-5.2266 5.3164,-5.1875 l 81.543,0.98438 c 2.2031,-0.13672 4.3438,1.1211 5.2266,3.2891 l 16.273,39.902 h -0.0117 c 0.26562,0.64062 0.40234,1.3594 0.37891,2.1016 -0.0625,2.8984 -2.4805,5.2031 -5.3789,5.125 -7.2656,-0.17578 -14.574,1.1094 -21.438,3.8555 -6.5742,2.6328 -12.758,6.625 -18.125,11.992 -5.1016,5.1016 -8.9805,10.957 -11.715,17.016 -3.0469,6.7383 -4.7109,13.703 -5.125,20.191 -0.0391,0.59375 -0.17578,1.1953 -0.42969,1.7773 -1.1602,2.6562 -4.2578,3.8789 -6.9258,2.7188 l -0.10156,-0.0508 c -36.336,-15.934 -57.688,-25.305 -73.883,-63.305 l -18.324,-43.023 c -3.7656,-5.9688 -3.7031,-11.965 -1.5117,-16.234 1.0703,-2.0898 2.6328,-3.793 4.5234,-4.9258 1.9648,-1.1836 4.2461,-1.7773 6.6875,-1.625 4.6836,0.28906 9.8633,3.3867 13.766,10.645 0.0508,0.0898 0.10156,0.17578 0.15234,0.26562 z m -66.742,232.46 c -6.6133,0 -12.922,-1.4609 -18.617,-4.0664 -5.8945,-2.707 -11.098,-6.6484 -15.277,-11.5 l -0.0117,0.012 c -3.4258,-3.9805 -6.1719,-8.5898 -8.0352,-13.617 -1.8008,-4.8477 -2.7852,-10.09 -2.7852,-15.543 0,-12.344 5,-23.527 13.098,-31.613 8.0977,-8.0977 19.27,-13.098 31.613,-13.098 12.343,0 23.527,5 31.613,13.098 8.0977,8.0859 13.098,19.27 13.098,31.613 0,4.3594 -0.64062,8.6016 -1.8281,12.645 -1.2109,4.1172 -3.0234,8.0117 -5.3281,11.586 -4.0547,6.2734 -9.6367,11.473 -16.199,15.051 -6.375,3.4766 -13.652,5.4414 -21.363,5.4414 z m -14.246,-13.641 c 4.3086,1.9766 9.1328,3.0859 14.246,3.0859 5.9453,0 11.5,-1.5 16.324,-4.1172 5.0508,-2.7461 9.3203,-6.7148 12.406,-11.5 1.7383,-2.6836 3.1094,-5.668 4.0547,-8.8672 0.89453,-3.0352 1.3711,-6.2852 1.3711,-9.6719 0,-9.4336 -3.8281,-17.973 -10,-24.156 -6.1836,-6.1836 -14.723,-10 -24.156,-10 -9.4336,0 -17.973,3.8281 -24.156,10 -6.1836,6.1836 -10,14.723 -10,24.156 0,4.1797 0.74219,8.1875 2.1172,11.879 1.4219,3.8398 3.5156,7.3555 6.1328,10.391 l -0.0117,0.012 0.0117,0.012 c 3.1992,3.7148 7.168,6.7266 11.664,8.793 z m -25.316,-141.17 c -0.90625,-1.2734 -1.2344,-2.9336 -0.75391,-4.5469 l 18.68,-62.27 0.0508,-0.16406 c 1.2227,-3.9414 0.96875,-6.3242 0.0391,-7.3789 -0.15234,-0.17578 -0.33984,-0.28906 -0.52734,-0.32812 -0.27734,-0.0625 -0.59375,-0.0508 -0.93359,0.0625 -1.4219,0.45312 -2.832,2.1289 -3.4375,5.1133 -0.0625,0.32812 -0.15234,0.62891 -0.27734,0.91797 h 0.0117 l -17.633,43.805 c -12.973,32.242 -6.8789,52.07 4.9883,82.75 4.5586,-3.1758 9.7227,-5.9336 15.328,-8.0352 7.3945,-2.7852 15.531,-4.4453 24.043,-4.4453 9.0039,0 17.609,1.8516 25.418,5.2031 5.6797,2.4297 10.934,5.6562 15.629,9.5234 l 12.43,-29.562 -50.332,-51.551 -24.637,35.895 c -1.6367,2.4062 -4.9141,3.0234 -7.3164,1.3867 -0.69141,-0.46484 -1.2227,-1.0703 -1.6133,-1.75 l -9.1562,-14.598 z m 28.023,-63.809 -18,60.004 3.9062,6.2227 23.73,-34.562 c 0.1875,-0.28906 0.41406,-0.55469 0.67969,-0.80469 2.0781,-2.0273 5.4141,-1.9766 7.4453,0.10156 l 57.246,58.645 c 1.4219,1.4727 1.9141,3.7031 1.0703,5.707 l -16.602,39.449 c -0.26562,0.75391 -0.70703,1.4492 -1.3359,2.0391 -2.1016,2.0039 -5.4414,1.9141 -7.4453,-0.1875 -5.0117,-5.2656 -11.082,-9.5234 -17.859,-12.43 -6.5234,-2.7969 -13.715,-4.3438 -21.297,-4.3438 -7.2305,0 -14.105,1.3984 -20.328,3.7539 -6.8906,2.5938 -13,6.3594 -17.887,10.656 -0.45313,0.39062 -0.96875,0.71875 -1.5625,0.95703 -2.707,1.0586 -5.7695,-0.27734 -6.8281,-2.9844 l -0.0391,-0.10156 c -14.422,-36.953 -22.898,-58.668 -7.4688,-96.996 l 17.48,-43.441 c 1.5742,-6.8633 5.8555,-11.047 10.402,-12.508 2.2148,-0.71875 4.5078,-0.80469 6.6641,-0.26563 2.2305,0.55469 4.2695,1.75 5.8828,3.5898 3.1367,3.5508 4.6094,9.4844 2.1523,17.457 l -0.0234,0.0742 z m -211.57,117.19 c -4.6992,-4.6992 -8.1367,-10.191 -10.305,-16.047 -2.2539,-6.0703 -3.1367,-12.531 -2.6562,-18.93 0.39063,-5.2148 1.7148,-10.402 3.9531,-15.289 2.168,-4.7344 5.1758,-9.1328 9.0195,-12.973 8.7266,-8.7266 20.176,-13.098 31.613,-13.098 11.449,0 22.887,4.3711 31.613,13.098 8.7266,8.7266 13.098,20.176 13.098,31.613 0,11.449 -4.3711,22.887 -13.098,31.613 -3.0742,3.0742 -6.5234,5.6172 -10.238,7.6445 -3.8164,2.0781 -7.8477,3.5625 -11.977,4.4453 -7.2812,1.5625 -14.887,1.2852 -22.078,-0.83203 -6.9531,-2.0547 -13.488,-5.8047 -18.957,-11.262 z m -0.41406,-19.711 c 1.6641,4.4727 4.2812,8.6523 7.8711,12.254 4.1953,4.1953 9.1836,7.0664 14.461,8.6289 5.4922,1.625 11.324,1.8281 16.93,0.62891 3.1758,-0.67969 6.2461,-1.8008 9.1328,-3.375 2.7695,-1.5117 5.3906,-3.4648 7.8086,-5.8711 6.6758,-6.6758 10,-15.418 10,-24.156 0,-8.7422 -3.3359,-17.48 -10,-24.156 -6.6758,-6.6758 -15.418,-10 -24.156,-10 -8.7422,0 -17.48,3.3359 -24.156,10 -2.9844,2.9844 -5.2891,6.3359 -6.9141,9.8867 -1.6992,3.7031 -2.6953,7.6719 -2.9961,11.699 -0.36719,4.875 0.31641,9.8242 2.0391,14.473 z m 81.945,-117.95 c 0.0391,-0.1875 0.0898,-0.37891 0.15234,-0.56641 0.15234,-0.44141 0.32812,-0.80469 0.57812,-1.1953 0.46484,-0.71875 1.1094,-1.3359 1.9141,-1.7617 l 57.234,-30.82 c 0.11328,-0.0625 0.21484,-0.11328 0.32812,-0.16406 3.5156,-1.8906 4.9766,-3.7031 5.0508,-5.1016 0.0117,-0.23828 -0.0391,-0.45312 -0.13672,-0.62891 -0.15234,-0.25 -0.37891,-0.45312 -0.67969,-0.60547 -1.3359,-0.67969 -3.5156,-0.49219 -6.0703,1.2109 -0.31641,0.20312 -0.62891,0.37891 -0.96875,0.50391 l -43.316,18.453 c -31.98,13.629 -41.676,31.941 -54.992,62.031 5.4648,0.98438 11.07,2.6719 16.523,5.1406 7.1914,3.25 14.133,7.8359 20.152,13.867 6.375,6.375 11.133,13.766 14.297,21.664 2.293,5.7188 3.7266,11.699 4.3086,17.758 l 29.711,-12.117 0.86719,-72.031 -42.836,7.9609 c -2.8594,0.52734 -5.5938,-1.3711 -6.1211,-4.2188 -0.13672,-0.73047 -0.11328,-1.4492 0.0508,-2.1172 l 3.9531,-17.254 z m 64.879,-25.078 -55.129,29.688 -1.6367,7.1797 41.25,-7.6719 c 0.32812,-0.0625 0.66797,-0.0898 1.0078,-0.0898 2.8984,0.0391 5.2266,2.418 5.1875,5.3164 l -0.98438,81.543 c 0.13672,2.2031 -1.1211,4.3438 -3.2891,5.2266 l -39.902,16.273 v -0.0117 c -0.64062,0.26562 -1.3594,0.40234 -2.1016,0.37891 -2.8984,-0.0625 -5.2031,-2.4805 -5.125,-5.3789 0.17578,-7.2656 -1.1094,-14.574 -3.8555,-21.438 -2.6328,-6.5742 -6.625,-12.758 -11.992,-18.125 -5.1016,-5.1016 -10.957,-8.9805 -17.016,-11.715 -6.7383,-3.0469 -13.703,-4.7109 -20.191,-5.125 -0.59375,-0.0391 -1.1953,-0.17578 -1.7773,-0.42969 -2.6562,-1.1602 -3.8789,-4.2578 -2.7188,-6.9258 l 0.0508,-0.10156 c 15.934,-36.336 25.305,-57.688 63.305,-73.883 l 43.023,-18.324 c 5.9688,-3.7656 11.965,-3.7031 16.234,-1.5117 2.0898,1.0703 3.793,2.6328 4.9258,4.5234 1.1836,1.9648 1.7773,4.2461 1.625,6.6875 -0.28906,4.6836 -3.3867,9.8633 -10.645,13.766 -0.0898,0.0508 -0.17578,0.10156 -0.26562,0.15234 z m -232.46,-66.742 c 0,-6.6133 1.4609,-12.922 4.0664,-18.617 2.707,-5.8945 6.6484,-11.098 11.5,-15.277 l -0.0117,-0.0117 c 3.9805,-3.4258 8.5898,-6.1719 13.617,-8.0352 4.8477,-1.8008 10.09,-2.7852 15.543,-2.7852 12.344,0 23.527,5 31.613,13.098 8.0977,8.0977 13.098,19.27 13.098,31.613 0,12.343 -5,23.527 -13.098,31.613 -8.0859,8.0977 -19.27,13.098 -31.613,13.098 -4.3594,0 -8.6016,-0.64062 -12.645,-1.8281 -4.1172,-1.2109 -8.0117,-3.0234 -11.586,-5.3281 -6.2734,-4.0547 -11.473,-9.6367 -15.051,-16.199 -3.4766,-6.375 -5.4414,-13.652 -5.4414,-21.363 z m 13.641,-14.246 c -1.9766,4.3086 -3.0859,9.1328 -3.0859,14.246 0,5.9453 1.5,11.5 4.1172,16.324 2.7461,5.0508 6.7148,9.3203 11.5,12.406 2.6836,1.7383 5.668,3.1094 8.8672,4.0547 3.0352,0.89453 6.2852,1.3711 9.6719,1.3711 9.4336,0 17.973,-3.8281 24.156,-10 6.1836,-6.1836 10,-14.723 10,-24.156 0,-9.4336 -3.8281,-17.973 -10,-24.156 -6.1836,-6.1836 -14.723,-10 -24.156,-10 -4.1797,0 -8.1875,0.74219 -11.879,2.1172 -3.8398,1.4219 -7.3555,3.5156 -10.391,6.1328 l -0.0117,-0.0117 -0.0117,0.0117 c -3.7148,3.1992 -6.7266,7.168 -8.793,11.664 z m 141.17,-25.316 c 1.2734,-0.90625 2.9336,-1.2344 4.5469,-0.75391 l 62.27,18.68 0.16406,0.0508 c 3.9414,1.2227 6.3242,0.96875 7.3789,0.0391 0.17578,-0.15234 0.28906,-0.33984 0.32812,-0.52734 0.0625,-0.27734 0.0508,-0.59375 -0.0625,-0.93359 -0.45312,-1.4219 -2.1289,-2.832 -5.1133,-3.4375 -0.32813,-0.0625 -0.62891,-0.15234 -0.91797,-0.27734 v 0.0117 l -43.805,-17.633 c -32.242,-12.973 -52.07,-6.8789 -82.75,4.9883 3.1758,4.5586 5.9336,9.7227 8.0352,15.328 2.7852,7.3945 4.4453,15.531 4.4453,24.043 0,9.0039 -1.8516,17.609 -5.2031,25.418 -2.4297,5.6797 -5.6562,10.934 -9.5234,15.629 l 29.562,12.43 51.551,-50.332 -35.895,-24.637 c -2.4062,-1.6367 -3.0234,-4.9141 -1.3867,-7.3164 0.46484,-0.69141 1.0703,-1.2227 1.75,-1.6133 l 14.598,-9.1562 z m 63.809,28.023 -60.004,-18 -6.2227,3.9062 34.562,23.73 c 0.28906,0.1875 0.55469,0.41406 0.80469,0.67969 2.0273,2.0781 1.9766,5.4141 -0.10156,7.4453 l -58.645,57.246 c -1.4727,1.4219 -3.7031,1.9141 -5.707,1.0703 l -39.449,-16.602 c -0.75391,-0.26562 -1.4492,-0.70703 -2.0391,-1.3359 -2.0039,-2.1016 -1.9141,-5.4414 0.1875,-7.4453 5.2656,-5.0117 9.5234,-11.082 12.43,-17.859 2.7969,-6.5234 4.3438,-13.715 4.3438,-21.297 0,-7.2305 -1.3984,-14.105 -3.7539,-20.328 -2.5938,-6.8906 -6.3594,-13 -10.656,-17.887 -0.39062,-0.45313 -0.71875,-0.96875 -0.95703,-1.5625 -1.0586,-2.707 0.27734,-5.7695 2.9844,-6.8281 l 0.10156,-0.0391 c 36.953,-14.422 58.668,-22.898 96.996,-7.4688 l 43.441,17.48 c 6.8633,1.5742 11.047,5.8555 12.508,10.402 0.71875,2.2148 0.80469,4.5078 0.26562,6.6641 -0.55469,2.2305 -1.75,4.2695 -3.5898,5.8828 -3.5508,3.1367 -9.4844,4.6094 -17.457,2.1523 l -0.0742,-0.0234 z m -117.19,-211.57 c 4.6992,-4.6992 10.191,-8.1367 16.047,-10.305 6.0703,-2.2539 12.531,-3.1367 18.93,-2.6562 5.2148,0.39063 10.402,1.7148 15.289,3.9531 4.7344,2.168 9.1328,5.1758 12.973,9.0195 8.7266,8.7266 13.098,20.176 13.098,31.613 0,11.449 -4.3711,22.887 -13.098,31.613 -8.7266,8.7266 -20.176,13.098 -31.613,13.098 -11.449,0 -22.887,-4.3711 -31.613,-13.098 -3.0742,-3.0742 -5.6172,-6.5234 -7.6445,-10.238 -2.0781,-3.8164 -3.5625,-7.8477 -4.4453,-11.977 -1.5625,-7.2812 -1.2852,-14.887 0.83203,-22.078 2.0547,-6.9531 5.8047,-13.488 11.262,-18.957 z m 19.711,-0.41406 c -4.4727,1.6641 -8.6523,4.2812 -12.254,7.8711 -4.1953,4.1953 -7.0664,9.1836 -8.6289,14.461 -1.625,5.4922 -1.8281,11.324 -0.62891,16.93 0.67969,3.1758 1.8008,6.2461 3.375,9.1328 1.5117,2.7695 3.4648,5.3906 5.8711,7.8086 6.6758,6.6758 15.418,10 24.156,10 8.7422,0 17.48,-3.3359 24.156,-10 6.6758,-6.6758 10,-15.418 10,-24.156 0,-8.7422 -3.3359,-17.48 -10,-24.156 -2.9844,-2.9844 -6.3359,-5.2891 -9.8867,-6.9141 -3.7031,-1.6992 -7.6719,-2.6953 -11.699,-2.9961 -4.875,-0.36719 -9.8242,0.31641 -14.473,2.0391 z m 117.95,81.945 c 0.1875,0.0391 0.37891,0.0898 0.56641,0.15234 0.44141,0.15234 0.80469,0.32812 1.1953,0.57812 0.71875,0.46484 1.3359,1.1094 1.7617,1.9141 l 30.82,57.234 c 0.0625,0.11328 0.11328,0.21484 0.16406,0.32812 1.8906,3.5156 3.7031,4.9766 5.1016,5.0508 0.23828,0.0117 0.45312,-0.0391 0.62891,-0.13672 0.25,-0.15234 0.45312,-0.37891 0.60547,-0.67969 0.67969,-1.3359 0.49219,-3.5156 -1.2109,-6.0703 -0.20313,-0.31641 -0.37891,-0.62891 -0.50391,-0.96875 l -18.453,-43.316 c -13.629,-31.98 -31.941,-41.676 -62.031,-54.992 -0.98438,5.4648 -2.6719,11.07 -5.1406,16.523 -3.25,7.1914 -7.8359,14.133 -13.867,20.152 -6.375,6.375 -13.766,11.133 -21.664,14.297 -5.7188,2.293 -11.699,3.7266 -17.758,4.3086 l 12.117,29.711 72.031,0.86719 -7.9609,-42.836 c -0.52734,-2.8594 1.3711,-5.5938 4.2188,-6.1211 0.73047,-0.13672 1.4492,-0.11328 2.1172,0.0508 l 17.254,3.9531 z m 25.078,64.879 -29.688,-55.129 -7.1797,-1.6367 7.6719,41.25 c 0.0625,0.32812 0.0898,0.66797 0.0898,1.0078 -0.0391,2.8984 -2.418,5.2266 -5.3164,5.1875 l -81.543,-0.98438 c -2.2031,0.13672 -4.3438,-1.1211 -5.2266,-3.2891 l -16.273,-39.902 h 0.0117 c -0.26562,-0.64062 -0.40234,-1.3594 -0.37891,-2.1016 0.0625,-2.8984 2.4805,-5.2031 5.3789,-5.125 7.2656,0.17578 14.574,-1.1094 21.438,-3.8555 6.5742,-2.6328 12.758,-6.625 18.125,-11.992 5.1016,-5.1016 8.9805,-10.957 11.715,-17.016 3.0469,-6.7383 4.7109,-13.703 5.125,-20.191 0.0391,-0.59375 0.17578,-1.1953 0.42969,-1.7773 1.1602,-2.6719 4.2578,-3.8789 6.9258,-2.7188 l 0.10156,0.0508 c 36.336,15.934 57.688,25.305 73.883,63.305 l 18.324,43.023 c 3.7656,5.9688 3.7031,11.965 1.5117,16.234 -1.0703,2.0898 -2.6328,3.793 -4.5234,4.9258 -1.9648,1.1836 -4.2461,1.7773 -6.6875,1.625 -4.6836,-0.28906 -9.8633,-3.3867 -13.766,-10.645 -0.0508,-0.0898 -0.10156,-0.17578 -0.15234,-0.26562 z m 80.988,-218.82 c -4.3086,-1.9766 -9.1328,-3.0859 -14.246,-3.0859 -5.9453,0 -11.5,1.5 -16.324,4.1172 -5.0508,2.7461 -9.3203,6.7148 -12.406,11.5 -1.7383,2.6836 -3.1094,5.668 -4.0547,8.8672 -0.89453,3.0352 -1.3711,6.2852 -1.3711,9.6719 0,9.4336 3.8281,17.973 10,24.156 6.1836,6.1836 14.723,10 24.156,10 9.4336,0 17.973,-3.8281 24.156,-10 6.1836,-6.1836 10,-14.723 10,-24.156 0,-4.1797 -0.74219,-8.1875 -2.1172,-11.879 -1.4219,-3.8398 -3.5156,-7.3555 -6.1328,-10.391 l 0.0117,-0.0117 -0.0117,-0.0117 c -3.1992,-3.7148 -7.168,-6.7266 -11.664,-8.793 z m 25.316,141.17 c 0.90625,1.2734 1.2344,2.9336 0.75391,4.5469 l -18.68,62.27 -0.0508,0.16406 c -1.2227,3.9414 -0.96875,6.3242 -0.0391,7.3789 0.15234,0.17578 0.33984,0.28906 0.52734,0.32812 0.27734,0.0625 0.59375,0.0508 0.93359,-0.0625 1.4219,-0.45312 2.832,-2.1289 3.4375,-5.1133 0.0625,-0.32813 0.15234,-0.62891 0.27734,-0.91797 h -0.0117 l 17.633,-43.805 c 12.973,-32.242 6.8789,-52.07 -4.9883,-82.75 -4.5586,3.1758 -9.7227,5.9336 -15.328,8.0352 -7.3945,2.7852 -15.531,4.4453 -24.043,4.4453 -9.0039,0 -17.609,-1.8516 -25.418,-5.2031 -5.6797,-2.4297 -10.934,-5.6562 -15.629,-9.5234 l -12.43,29.562 50.332,51.551 24.637,-35.883 c 1.6367,-2.4062 4.9141,-3.0234 7.3164,-1.3867 0.69141,0.46484 1.2227,1.0703 1.6133,1.75 l 9.1562,14.598 z m -28.023,63.809 18,-60.004 -3.9062,-6.2227 -23.73,34.562 c -0.1875,0.28906 -0.41406,0.55469 -0.67969,0.80469 -2.0781,2.0273 -5.4141,1.9766 -7.4453,-0.10156 l -57.246,-58.645 c -1.4219,-1.4727 -1.9141,-3.7031 -1.0703,-5.707 l 16.602,-39.449 c 0.26562,-0.75391 0.70703,-1.4492 1.3359,-2.0391 2.1016,-2.0039 5.4414,-1.9141 7.4453,0.1875 5.0117,5.2656 11.082,9.5234 17.859,12.43 6.5234,2.7969 13.715,4.3438 21.297,4.3438 7.2305,0 14.105,-1.3984 20.328,-3.7539 6.8906,-2.5938 13,-6.3594 17.887,-10.656 0.45312,-0.39062 0.96875,-0.71875 1.5625,-0.95703 2.707,-1.0586 5.7695,0.27734 6.8281,2.9844 l 0.0391,0.10156 c 14.422,36.953 22.898,58.668 7.4688,96.996 l -17.48,43.441 c -1.5742,6.8633 -5.8555,11.047 -10.402,12.508 -2.2148,0.71875 -4.5078,0.80469 -6.6641,0.26562 -2.2305,-0.55469 -4.2695,-1.75 -5.8828,-3.5898 -3.1367,-3.5508 -4.6094,-9.4844 -2.1523,-17.457 l 0.0234,-0.0742 z"
       id="path4"
       inkscape:connector-curvature="0"
       style="fill:#ffffff;fill-opacity:0.99494952" />
  </g>
</svg>
